<svg viewBox="0 0 3291 2417" width="900" height="661" xmlns="http://www.w3.org/2000/svg"
     xmlns:xlink="http://www.w3.org/1999/xlink" xml:space="preserve" overflow="hidden">
    <g transform="translate(-201 -26)"><path d="M743.5 2150.5 1792.74 333.5 2835.5 2150.5Z" stroke="#000000" stroke-width="20.625" stroke-linejoin="miter" stroke-miterlimit="10" fill="none" fill-rule="evenodd"/>
    <path
        d="M1456 1428C1456 1241.33 1606.43 1090 1792 1090 1977.57 1090 2128 1241.33 2128 1428 2128 1614.67 1977.57 1766 1792 1766 1606.43 1766 1456 1614.67 1456 1428Z"
        stroke="#000000" stroke-width="13.75" stroke-linejoin="miter" stroke-miterlimit="10" fill="none"
        fill-rule="evenodd"/><path d="M1792 333 1792.08 1089.7" stroke="#000000" stroke-width="13.75"
                                   stroke-linejoin="miter" stroke-miterlimit="10" fill="none" fill-rule="evenodd"/><path
        d="M2834.6 2150.19 2076 1608" stroke="#000000" stroke-width="13.75" stroke-linejoin="miter"
        stroke-miterlimit="10" fill="none" fill-rule="evenodd"/>
    <path d="M0 0 758.737 542.187" stroke="#000000"
          stroke-width="13.75" stroke-linejoin="miter"
          stroke-miterlimit="10" fill="none"
          fill-rule="evenodd"
          transform="matrix(-1 0 0 1 1501.74 1608)"/><text
            font-family="Inter,sans-serif" font-weight="700" font-size="110" transform="matrix(1 0 0 1 1519.65 1319)">Integrative</text><text
            font-family="Inter,sans-serif" font-weight="700" font-size="110"
            transform="matrix(1 0 0 1 1660 1451)">Field</text><text font-family="Inter,sans-serif" font-weight="400"
                                                                    font-size="69"
                                                                    transform="matrix(1 0 0 1 1510 1573)">Alignment | Return</text><text
            font-family="Inter,sans-serif" font-weight="700" font-size="119" transform="matrix(1 0 0 1 1371.32 174)">Shared Becoming</text><text
            font-family="Inter,sans-serif" font-weight="400" font-size="69" transform="matrix(1 0 0 1 380.4 2383)">Sensitivity | Regulation | Care</text><text
            font-family="Inter,sans-serif" font-weight="700" font-size="119" transform="matrix(1 0 0 1 272.843 2279)">Relational Coherence</text><text
            font-family="Inter,sans-serif" font-weight="400" font-size="69" transform="matrix(1 0 0 1 2364.17 2374)">Stability | Agency | Stewardship</text><text
            font-family="Inter,sans-serif" font-weight="700" font-size="119" transform="matrix(1 0 0 1 2208.76 2279)">Harmonized Sovereignty</text><text
            font-family="Inter,sans-serif" font-weight="400" font-size="69" transform="matrix(1 0 0 1 1252.91 272)">Direction | Soul | Creative Participation</text></g></svg>
